<?xml version="1.0" standalone="no"?>
<!DOCTYPE svg PUBLIC "-//W3C//DTD SVG 20010904//EN"
 "http://www.w3.org/TR/2001/REC-SVG-20010904/DTD/svg10.dtd">
<svg version="1.0" xmlns="http://www.w3.org/2000/svg"
 width="70.000000pt" height="70.000000pt" viewBox="0 0 70.000000 70.000000"
 preserveAspectRatio="xMidYMid meet">
<metadata>
Created by potrace 1.14, written by Peter Selinger 2001-2017
</metadata>
<g transform="translate(0.000000,70.000000) scale(0.100000,-0.100000)"
fill="#000000" stroke="none">
<path d="M38 483 c-27 -17 -38 -40 -38 -80 0 -30 19 -70 39 -79 9 -5 77 -10
151 -13 l135 -6 -42 -42 c-24 -24 -43 -45 -43 -48 0 -3 10 -5 23 -5 12 0 39
16 60 36 l37 35 1 -28 c1 -15 1 -31 0 -35 0 -5 12 -8 27 -8 l28 0 0 143 -1
142 -175 2 c-149 2 -179 0 -202 -14z m322 -47 c3 -11 4 -35 2 -53 l-4 -33
-134 0 c-122 0 -136 2 -155 21 -11 11 -18 27 -15 36 3 8 6 19 6 24 0 19 47 26
170 25 115 -1 125 -2 130 -20z"/>
<path d="M105 411 c-15 -14 1 -21 50 -21 40 0 53 3 50 13 -5 12 -90 19 -100 8z"/>
<path d="M483 483 c-37 -19 -38 -21 -19 -46 12 -16 16 -16 49 -2 44 18 93 19
104 3 21 -35 0 -57 -53 -56 -47 1 -52 -1 -49 -19 2 -10 4 -21 4 -25 1 -3 21
-6 46 -6 24 0 49 -3 55 -7 14 -9 13 -40 -3 -54 -16 -13 -110 -5 -115 10 -6 15
-27 10 -45 -11 -16 -19 -15 -21 10 -37 20 -13 48 -18 105 -18 71 0 80 2 104
27 23 22 26 31 20 62 -4 21 -15 40 -27 47 l-21 11 21 14 c28 20 28 74 0 100
-29 26 -141 30 -186 7z"/>
</g>
</svg>
